<?xml version="1.0" encoding="UTF-8"?>
<svg id="_图层_2" data-name="图层 2" xmlns="http://www.w3.org/2000/svg" viewBox="0 0 131.99 131.99">
  <defs>
    <style>
      .cls-1, .cls-2 {
        fill: #143e5c;
      }

      .cls-3 {
        fill: #fff;
      }

      .cls-2 {
        font-family: ArialRoundedMTBold, 'Arial Rounded MT Bold';
        font-size: 70.77px;
      }
    </style>
  </defs>
  <g id="_图层_1-2" data-name="图层 1">
    <g>
      <path class="cls-1" d="M124.77,131.99h-49.24c-1.68-.74-2.51-2.91-1.15-4.37.14-.15,1.2-.79,1.28-.79h47.3l-8.11-8.26c-32.33-.56-64.81-.09-97.19-.24l-8.64,8.5h47.3c.07,0,1.13.63,1.28.79,1.36,1.46.53,3.63-1.15,4.37H7.22c-3.68-1.15-6.07-3.53-7.22-7.22V7.23C1.19,3.42,4.02.47,8.11,0h115.76c4.24.43,7.64,3.93,8.12,8.12v115.76c-.47,4.04-3.42,6.99-7.23,8.11ZM122.96,5.16H9.02l8.11,8.26,1.03.26,96.16-.02,8.64-8.5ZM5.16,122.97l8.26-8.11.26-1.03-.02-96.16L5.16,9.03v113.94ZM126.83,122.97V9.03l-8.5,8.64c.15,32.38-.33,64.87.24,97.19l8.26,8.11ZM112.91,19.08H19.08v93.83h93.83V19.08Z"/>
      <path class="cls-3" d="M56.45,131.99c1.68-.74,2.51-2.91,1.15-4.37-.14-.15-1.2-.79-1.28-.79H9.02l8.64-8.5c32.38.15,64.87-.33,97.19.24l8.11,8.26h-47.3c-.07,0-1.13.63-1.28.79-1.36,1.46-.53,3.63,1.15,4.37h-8.76c2.67-1.06,2.24-5.08-.64-5.18-3.07-.11-3.7,4.02-.91,5.18h-8.76Z"/>
      <path class="cls-1" d="M66.76,131.99h-1.55c-2.8-1.16-2.16-5.3.91-5.18,2.88.11,3.31,4.13.64,5.18Z"/>
      <polygon class="cls-3" points="122.96 5.16 114.32 13.67 18.16 13.69 17.13 13.43 9.02 5.16 122.96 5.16"/>
      <polygon class="cls-3" points="5.16 122.97 5.16 9.03 13.66 17.67 13.68 113.83 13.42 114.86 5.16 122.97"/>
      <path class="cls-3" d="M126.83,122.97l-8.26-8.11c-.56-32.32-.09-64.81-.24-97.19l8.5-8.64v113.94Z"/>
      <path class="cls-3" d="M112.71,19.08v93.83H18.88V19.08h93.83Z"/>
      <text class="cls-2" transform="translate(39.38 91.02)"><tspan x="0" y="0">N</tspan></text>
    </g>
  </g>
</svg>