<?xml version="1.0" encoding="UTF-8"?>
<svg id="_图层_2" data-name="图层 2" xmlns="http://www.w3.org/2000/svg" viewBox="0 0 695.28 328.21">
  <defs>
    <style>
      .cls-1 {
        fill: #fff;
        stroke: #000;
        stroke-miterlimit: 10;
        stroke-width: .25px;
      }
    </style>
  </defs>
  <g id="_图层_1-2" data-name="图层 1">
    <g>
      <path class="cls-1" d="M239.57,257.7l97.74-222.08,52.27-.11,98.98,222.2h-56.34l-20.21-47.14-98.67-.12-20.91,47.26h-52.86ZM394.65,168.08l-32.19-79.95-31.67,79.95h63.86Z"/>
      <path class="cls-1" d="M201.02.2c.69-.4,4.84.92,4.74,2.34l1.08,51.52-15.02,41.33c-15.91-8.95-32.86-16.11-51.26-17.99-53.55-5.46-96.61,26.87-87.04,83.82,11,65.45,99.37,65.87,143.93,35.9l16.66,41.24c-15.43,11.24-35.05,17.76-53.85,20.79-68.42,11.01-145.93-11.04-158.26-88.27-6.51-40.79,3.48-85.13,36.33-112,1.92-1.57,9.44-6.32,10.07-7.64.43-.9.6-2.57.69-3.6,1.04-12.26-.17-26.24.5-38.68.06-1.06.63-6.92.82-7.23.28-.46,2.8-1.49,3.34-1.5,1.27-.01,1.78,1.75,2.57,2.59,10.36,10.93,20.91,21.69,31.25,32.65,26.09-5.13,53.35-5.31,79.24,1.02L201.02.2Z"/>
      <polygon class="cls-1" points="688.17 35.54 688.17 79.54 605.54 79.54 605.54 257.7 554.56 257.7 554.56 79.54 471.92 79.54 471.92 35.54 688.17 35.54"/>
      <path class="cls-1" d="M98.98,319.94h-5.9v-12.61c0-1.33-1.97-3.39-3.47-3.43-1.2-.03-4.58,2.09-4.58,2.89v13.15h-5.9v-13.68c0-.9-1.87-2.33-2.94-2.35-1.2-.03-4.57,2.09-4.57,2.89v13.15h-5.9v-20.39h5.91s.27,3.23.27,3.23c2.63-5.03,10.18-5.18,12.88-.02,2.43-3.84,9.47-5.47,12.63-1.89.35.4,1.59,2.95,1.59,3.24v15.83Z"/>
      <path class="cls-1" d="M376.94,319.94l-6.9-.07-2.16-5.5-12.04-.35-2.58,5.85-6.9.07,11.88-27.29,7.19.45,11.52,26.84ZM365.13,308.67c.29-.27-1.55-5.1-1.88-5.89-.38-.9-1.02-2.78-1.86-3.22l-3.22,9.12h6.97Z"/>
      <path class="cls-1" d="M330.25,291.5v28.44h-5.91s-.27-3.23-.27-3.23c-3.07,4.96-10.27,5.08-13.96.55-7.43-9.11,2.3-23.96,12.61-16.37.9.66.74,1.77,1.62,1.87v-11.27h5.9ZM318.3,303.96c-6.91.65-5.38,15.19,3.75,10.73,2.7-1.32,2.7-4.09,2.33-6.85-.35-2.58-3.65-4.11-6.07-3.88Z"/>
      <path class="cls-1" d="M494.46,291.5v11.27c.89-.37.92-1.29,1.95-2.07,7.05-5.36,14.83,1.43,14.7,9.29-.15,9.33-10.44,14.82-16.38,6.73l-.27,3.23h-5.91v-28.44h5.9ZM499.15,303.96c-6.97.65-6.4,11.63.41,11.62s6.62-12.27-.41-11.62Z"/>
      <path class="cls-1" d="M212.2,291.5v11.27c.89-.37.92-1.29,1.95-2.07,10.12-7.69,19.8,8.72,11.49,17.39-3.54,3.69-10.7,3.27-13.17-1.37l-.27,3.23h-5.91v-28.44h5.9ZM216.89,303.96c-6.97.65-6.4,11.63.41,11.62,7,0,6.62-12.27-.41-11.62Z"/>
      <path class="cls-1" d="M32.93,294.24l-1.03,5.32c-5.18-1.86-13.11-3.86-16.39,2.12-6.29,11.48,8.68,16.72,16.92,10.76l1.39,5.37c-9.5,5.6-25.14,3.07-26.08-9.91-1.09-15.01,13.52-18.97,25.19-13.65Z"/>
      <path class="cls-1" d="M253.52,319.94h-5.91s-.27-2.69-.27-2.69c-1.81.8-2.99,2.51-5.05,2.99-5.02,1.18-10.46-.63-10.28-6.48.24-8.15,10.24-6.5,15.61-5.1-1.38-6.6-8.27-5.15-12.87-2.68l-1.38-4.84c4.16-2.78,14.86-3.4,18.24.58.37.43,1.92,3.68,1.92,3.99v14.22ZM247.08,312.44c-2.51-1.11-10.09-2.34-8.52,2.34.67,2,8.67.9,8.52-2.34Z"/>
      <path class="cls-1" d="M447.77,311.36h-16.63c1.48,5.59,9.79,4.8,13.69,2.16l1.83,4.46c-6.66,4.72-20.81,3.46-21.9-6.41-1.85-16.84,25.04-17.02,23.01-.21ZM441.87,307.6c-1.85-5.06-8.89-5.05-10.73,0h10.73Z"/>
      <path class="cls-1" d="M304.5,311.36h-16.63c1.48,5.59,9.79,4.8,13.69,2.16l1.83,4.46c-6.64,4.72-20.74,3.48-21.9-6.41-1.97-16.88,25.08-16.94,23.01-.21ZM298.59,307.6c-1.85-5.06-8.89-5.05-10.73,0h10.73Z"/>
      <path class="cls-1" d="M669.79,299.14c5.92-.93,12.15,1.12,13.94,7.27,2.65,9.1-4.66,15.18-13.48,14.02-12.46-1.63-12.67-19.37-.45-21.29ZM671.93,303.97c-6.64.58-6.37,11.48.4,11.6,7.66.14,7.33-12.28-.4-11.6Z"/>
      <path class="cls-1" d="M642.96,299.14c9.17-1.44,16.93,4.9,13.82,14.35-3.27,9.95-20.42,9.24-22.56-1.04-1.34-6.4,2.19-12.29,8.74-13.32ZM645.1,303.96c-6.73.6-6.45,11.47.4,11.6,7.67.14,7.32-12.29-.4-11.6Z"/>
      <path class="cls-1" d="M46.25,299.14c9.17-1.44,16.93,4.9,13.82,14.35-3.27,9.95-20.42,9.24-22.56-1.04-1.34-6.4,2.19-12.29,8.74-13.32ZM48.39,303.96c-6.73.6-6.45,11.47.4,11.6,7.67.14,7.32-12.29-.4-11.6Z"/>
      <path class="cls-1" d="M132.11,299.14c9.17-1.44,16.93,4.9,13.82,14.35-3.27,9.95-20.42,9.24-22.56-1.04-1.34-6.4,2.19-12.29,8.74-13.32ZM134.25,303.96c-6.73.6-6.45,11.47.4,11.6,7.67.14,7.32-12.29-.4-11.6Z"/>
      <path class="cls-1" d="M581.93,311.89l4.88-12.28,6.39.22c-3.14,7.07-5.61,15.23-9.03,22.09-3.07,6.15-6.87,7.04-13.49,5.51l1.02-4.58c3.66.26,6.2.44,7.35-3.71l-8.92-19.58,6.72.52,5.09,11.82Z"/>
      <path class="cls-1" d="M264.37,306.43c2.08,1.52,12.77-.2,13.82,5.21,2.2,11.32-15.04,10.18-21.22,6.17l1.39-4.31c3.75,1.47,7.92,2.92,12.05,2.13,2.05-.39,2.76-2.07.2-2.85-3.58-1.09-11.52.02-12.68-5.03-2.36-10.3,13.06-10.29,18.98-6.61l-1.69,4.29c-2.85-1.4-6.44-2.16-9.61-1.58-1.42.26-2.38,1.73-1.24,2.57Z"/>
      <path class="cls-1" d="M458.09,306.43c2.08,1.52,12.77-.2,13.82,5.21,2.2,11.32-15.04,10.18-21.22,6.17l1.39-4.31c3.75,1.47,7.92,2.92,12.05,2.13,2.05-.39,2.76-2.07.2-2.85-3.58-1.09-11.52.02-12.68-5.03-2.37-10.34,13.03-10.22,18.98-6.62l-1.69,4.3c-2.85-1.4-6.44-2.16-9.61-1.58-1.42.26-2.38,1.73-1.24,2.57Z"/>
      <polygon class="cls-1" points="634.51 292.58 634.51 297.94 624.32 297.94 624.32 319.94 617.88 319.94 617.88 297.94 607.68 297.94 607.68 292.58 634.51 292.58"/>
      <path class="cls-1" d="M107.56,304.38h-4.83s0-4.83,0-4.83h4.83c-1.27-8.52,6.66-10.19,13.19-7.54l-.31,4.33c-3.38-.6-7.1-1.48-6.97,3.22h7.51l-.5,4.6-7.01.23v15.56h-5.9v-15.56Z"/>
      <path class="cls-1" d="M180,313.77l.69,1.19c2.2,1.22,4.09.02,6.28-.39l.32,4.86c-3.94,1.87-12.29,1.96-13.16-3.55-.3-1.88.38-11.1-.03-11.51l-5.13-.5-.24-4.33h5.37s0-6.98,0-6.98h5.91v6.98s6.98,0,6.98,0v4.52s-6.98.31-6.98.31v9.39Z"/>
      <path class="cls-1" d="M559.92,313.77l.69,1.19c2.2,1.22,4.09.02,6.28-.39l.32,4.86c-3.94,1.87-12.29,1.96-13.16-3.55-.3-1.88.38-11.1-.03-11.51l-5.13-.5-.24-4.33h5.37s0-6.98,0-6.98h5.91v6.98s6.98,0,6.98,0v4.52s-6.98.31-6.98.31v9.39Z"/>
      <path class="cls-1" d="M397.31,305.45c-3.57-1.52-10.02-2.77-11.54,2.12-2.56,8.24,6.96,9.61,12.09,5.93l1.61,5.36c-9.57,4.1-22.76.92-20.15-11.83,1.72-8.42,13.38-10.35,19.49-5.62l-1.51,4.04Z"/>
      <path class="cls-1" d="M420.38,305.45c-5.32-2.54-12.77-1.99-11.75,5.6.77,5.75,8.68,5.02,12.3,2.45l1.61,5.36c-9.33,4.01-22.38,1.03-20.26-11.4,1.48-8.65,13.34-10.89,19.6-6.05l-1.51,4.04Z"/>
      <path class="cls-1" d="M151.03,299.55h5.91s.27,3.76.27,3.76c1.83-3.5,5.57-4.74,9.39-4.3v5.91c-1.86-.78-9.66.76-9.66,2.95v12.07h-5.9v-20.39Z"/>
      <rect class="cls-1" x="527.73" y="291.5" width="5.9" height="28.44"/>
      <rect class="cls-1" x="689.25" y="291.5" width="5.9" height="28.44"/>
      <path class="cls-1" d="M545.44,299.55v20.39h-5.9v-19.59c0-.11-.8-.61-.54-.8h6.44Z"/>
      <rect class="cls-1" x="476.75" y="299.55" width="5.9" height="20.39"/>
      <rect class="cls-1" x="515.92" y="299.55" width="5.9" height="20.39"/>
      <rect class="cls-1" x="190.74" y="305.99" width="11.27" height="5.37"/>
      <path class="cls-1" d="M517.38,290c5.95-1.75,6.75,7.41.45,6.34-3.15-.53-3.32-5.49-.45-6.34Z"/>
      <path class="cls-1" d="M540.99,290c5.96-1.75,6.6,7.38.45,6.34-3.15-.53-3.33-5.49-.45-6.34Z"/>
      <path class="cls-1" d="M478.21,290c5.96-1.75,6.6,7.38.45,6.34-3.15-.53-3.33-5.49-.45-6.34Z"/>
    </g>
  </g>
</svg>