<?xml version="1.0" encoding="UTF-8"?>
<svg id="_图层_2" data-name="图层 2" xmlns="http://www.w3.org/2000/svg" viewBox="0 0 615.46 234.07">
  <defs>
    <style>
      .cls-1 {
        fill: #fff;
      }
    </style>
  </defs>
  <g id="_图层_1-2" data-name="图层 1">
    <g>
      <g>
        <path d="M214.18,230.4L301.61,31.74l46.75-.1,88.54,198.76h-50.4l-18.08-42.16-88.26-.11-18.7,42.27h-47.28ZM352.9,150.24l-28.79-71.52-28.33,71.52h57.12Z"/>
        <path d="M179.7.07c.61-.36,4.33.82,4.24,2.09l.96,46.08-13.43,36.97c-14.23-8.01-29.39-14.41-45.85-16.09-47.9-4.89-86.42,24.04-77.85,74.97,9.84,58.54,88.88,58.92,128.75,32.11l14.9,36.89c-13.8,10.06-31.35,15.89-48.17,18.59C82.04,241.55,12.7,221.83,1.68,152.74c-5.82-36.49,3.11-76.15,32.49-100.19,1.72-1.4,8.44-5.65,9.01-6.83.38-.8.54-2.29.62-3.22.93-10.97-.15-23.47.44-34.6.05-.95.56-6.19.73-6.47.25-.41,2.5-1.34,2.98-1.34,1.13-.01,1.59,1.57,2.3,2.32,9.27,9.78,18.71,19.41,27.95,29.2,23.33-4.59,47.72-4.75,70.88.92L179.7.07Z"/>
        <polygon points="615.46 31.68 615.46 71.04 541.54 71.04 541.54 230.4 495.94 230.4 495.94 71.04 422.02 71.04 422.02 31.68 615.46 31.68"/>
      </g>
      <g>
        <path class="cls-1" d="M214.18,230.4L301.61,31.74l46.75-.1,88.54,198.76h-50.4l-18.08-42.16-88.26-.11-18.7,42.27h-47.28ZM352.9,150.24l-28.79-71.52-28.33,71.52h57.12Z"/>
        <path class="cls-1" d="M179.7.07c.61-.36,4.33.82,4.24,2.09l.96,46.08-13.43,36.97c-14.23-8.01-29.39-14.41-45.85-16.09-47.9-4.89-86.42,24.04-77.85,74.97,9.84,58.54,88.88,58.92,128.75,32.11l14.9,36.89c-13.8,10.06-31.35,15.89-48.17,18.59C82.04,241.55,12.7,221.83,1.68,152.74c-5.82-36.49,3.11-76.15,32.49-100.19,1.72-1.4,8.44-5.65,9.01-6.83.38-.8.54-2.29.62-3.22.93-10.97-.15-23.47.44-34.6.05-.95.56-6.19.73-6.47.25-.41,2.5-1.34,2.98-1.34,1.13-.01,1.59,1.57,2.3,2.32,9.27,9.78,18.71,19.41,27.95,29.2,23.33-4.59,47.72-4.75,70.88.92L179.7.07Z"/>
        <polygon class="cls-1" points="615.46 31.68 615.46 71.04 541.54 71.04 541.54 230.4 495.94 230.4 495.94 71.04 422.02 71.04 422.02 31.68 615.46 31.68"/>
      </g>
    </g>
  </g>
</svg>