<?xml version="1.0" encoding="UTF-8"?>
<svg id="_图层_2" data-name="图层 2" xmlns="http://www.w3.org/2000/svg" viewBox="0 0 452.01 224.44">
  <defs>
    <style>
      .cls-1 {
        fill: #fefefe;
      }

      .cls-1, .cls-2 {
        stroke: #231815;
        stroke-miterlimit: 10;
        stroke-width: .25px;
      }

      .cls-2 {
        fill: #fff;
      }
    </style>
  </defs>
  <g id="_图层_1-2" data-name="图层 1">
    <g>
      <path class="cls-1" d="M159.39,175.51L222.8,24.58l33.78-.51,64.35,151.44h-35.92l-13.47-31.86-64.58.1c-2.74,3.11-11.84,31.76-13.57,31.76h-33.99ZM218.7,114.28h41.47l-20.5-54.01-20.97,54.01Z"/>
      <path class="cls-1" d="M112.53,24.49L134.07.44c.85-.93,2.77.41,3.05,1.34.77,2.55-.02,11.44.07,14.88.19,6.83.93,13.78.47,20.68-1.9,3.24-8.18,26.06-9.59,27.07-.8.57-4.71-2.37-5.8-2.94-39.56-20.78-88.54-7.06-84.87,44.37,1.49,20.93,15.49,35.69,35.67,40.03,20.45,4.41,41.12-.23,58.58-11.34,1.23,3.24,11.56,27.06,10.79,28.37-.45.77-10.23,6.04-11.81,6.77-28.14,12.92-71.83,12.09-97.72-5.81C-6,136.95-6.2,70.44,28.23,39.77c1.27-1.13,6.35-4.33,6.66-5.4.6-2.04-.03-7.04.08-9.56.28-6.33.02-12.98.48-19.29.16-2.24.23-6.13,3.16-5.09,7.37,7.74,14.11,16.1,21.75,23.56,12.97-2.91,26.7-3.56,39.9-1.76,1.88.26,11.61,2.63,12.27,2.25Z"/>
      <polygon class="cls-1" points="451.12 24.11 451.12 54 397.59 54 397.59 175.51 364.32 175.51 364.32 54 310.8 54 310.8 24.11 451.12 24.11"/>
      <path class="cls-2" d="M36.92,205.89c.14-.14,3.7-.1,3.83.04.23.24-.27,1.31.26,1.4,1.72-1.79,4.85-2.8,6.99-1.2.58.43,1.05,1.75,1.2,1.68,1.79-.78,1.38-2.79,5.31-2.43,1.26.11,3.62,1.43,3.62,2.67v10.85c0,.19-3.86.19-3.86,0v-8.92c0-1.55-4.82-1.22-4.82.96v7.96c0,.19-3.86.19-3.86,0v-8.44c0-2.52-4.82-1.22-4.82,0v8.44c0,.19-3.86.19-3.86,0,0-1.77-.46-12.56,0-13.02Z"/>
      <path class="cls-2" d="M234.61,218.91c-.16.15-4.02.08-4.26-.08-.68-.42-.17-3.02-2.7-3.32-1-.12-5.48-.15-6.22.11-1.26.43-1.02,2.59-1.75,3.08-.89.6-3.21.04-4.36.22,1.07-2.2,6.79-17.05,7.7-17.6s3.61-.48,4.38.46c.61,2.07,7.88,16.51,7.2,17.15ZM227.38,211.68c.26-.23-2.02-4.89-2.17-5.78-.52.5-2.91,5.59-2.65,5.78.19.14,4.64.16,4.82,0Z"/>
      <path class="cls-2" d="M324.3,200.59v6.75c12.16-8.99,14.62,14.51,3.34,11.85-1.52-.36-2.06-1.51-2.63-1.72-1.22-.46-.35,1.31-.98,1.48-.22.06-3.6.15-3.6-.03v-18.32c0-.19,3.3.14,3.86,0ZM326.59,208.9c-3.24.85-3.47,6.05.12,6.91,5.78,1.38,5.57-8.39-.12-6.91Z"/>
      <path class="cls-2" d="M129.98,200.59v6.75c3.1-2.49,6.87-3.05,9.37.52,4.6,6.57-2.84,16.12-9.13,9.13-.59.22-.03,1.71-.24,1.93-.13.14-3.86.19-3.86,0v-18.32c0-.19,3.3.14,3.86,0ZM132.27,208.9c-3.9,1.02-3.14,7.9,1.69,7.04,4.33-.77,3.24-8.33-1.69-7.04Z"/>
      <path class="cls-2" d="M205.2,200.59v18.32c0,.19-3.73.14-3.86,0-.21-.22.35-1.71-.24-1.93-1.63,1.93-3.03,2.84-5.68,2.3-7.34-1.51-5.89-15.71,2.68-13.77,1.38.31,2.26,1.48,3.23,2.31v-7.23c0-.19,3.3.14,3.86,0ZM196.87,208.88c-2.97.88-2.9,6.87.89,7.12,5.71.38,4.51-8.73-.89-7.12Z"/>
      <path class="cls-2" d="M15.64,205.83c-.77.48-3.17-.86-4.51-.94-8.75-.5-8.62,10.88-.06,10.6,3.03-.1,4.97-3.47,5.97.9.48,2.1-2.19,2.61-4.12,2.88-8.61,1.23-15.66-4.86-11.64-13.56,2.18-4.71,10.21-6.18,14.27-3.77,1.6.95.83,3.43.08,3.9Z"/>
      <path class="cls-2" d="M156.5,218.91c-.13.13-3.11.09-3.56-.06-.79-.27-.66-1.51-1.02-1.38-.7.26-1.63,1.53-3,1.81-7.58,1.56-9.29-8.37-1.35-8.59,1.44-.04,7.21,1.24,3.6-1.14-2.98-1.96-5.27.71-6.48.62-.26-.02-2.55-2.77-.86-3.7,2.59-1.44,8.75-1.76,11.01.38.33.32,1.68,2.48,1.68,2.66,0,1.35.33,9.07,0,9.4ZM146.97,215.91c2.11,1.68,7.95-1.81,3.53-2.32-.59-.07-3.32-.09-3.59.07-.35.21-.44,1.86.06,2.25Z"/>
      <path class="cls-2" d="M188.81,213.61h-10.13c.49,4.1,8.31.64,8.67.96.14.13.68,3.56.45,3.82-.12.14-3.19.91-3.62.96-3.19.37-7.97-.27-9.32-3.62-4.86-12.12,15.16-14.74,13.93-2.12ZM184.46,211.19c1.8-1.77-5.23-4.29-5.79-.73-.18,1.11.47.67,1.2.73s4.42.16,4.59,0Z"/>
      <path class="cls-2" d="M279.46,213.61h-10.13c1.11,4.09,8.29.68,8.67.96.13.1.97,2.94.93,3.09-.16.63-3,1.5-3.69,1.61-4.72.73-10.05-.94-10.28-6.39-.46-10.55,16.22-9.95,14.5.72ZM274.99,209.39c-2.12-1.96-7.18.3-5.66,1.8.22.22,6.03.21,6.26,0s-.35-1.56-.61-1.8Z"/>
      <path class="cls-2" d="M293.39,209.71c-.51.37-7.14-2.64-7.19.28-.01.67,7.99,0,8.67,3.39,1.04,5.15-3.29,6.24-7.48,6.04-1-.05-5.57-.95-5.97-1.51-.24-.33.79-3.23.93-3.33.36-.27,6.76,2.95,8.67.96.8-.83-.15-.81-.72-.95-3.37-.81-9.23-.06-8.42-5.52s12.05-3.87,12.48-1.91c.03.16-.87,2.48-.98,2.56Z"/>
      <path class="cls-2" d="M163.73,208.79c-.05.05-.05,1.39,0,1.44,1.17,1.24,9.64-1.28,8.66,5.51-.76,5.25-12.33,3.9-13.42,2.14-.42-.68.38-3.09,1.19-3.27.68-.15,6.73,3.09,7.9.68.46-.94-1-.76-1.53-.87-3.02-.61-6.9-.17-7.42-4.17-.78-5.93,10.58-5.83,12.12-3.4.5.79-.27,2.66-1.05,2.84-.45.1-5.61-1.8-6.46-.9Z"/>
      <path class="cls-2" d="M308.86,209.75c-.27.25-6.37-1.87-7.23-.96-.05.05-.05,1.39,0,1.44.85.9,7.95-.69,8.65,3.65,1.27,7.87-12.4,5.63-13.41,4-.42-.68.38-3.09,1.19-3.27.68-.15,6.73,3.09,7.9.68.46-.94-1-.76-1.53-.87-3.76-.76-8.2-.32-7.14-5.86.76-3.98,10.44-3.95,11.84-1.71.29.46-.17,2.8-.28,2.89Z"/>
      <path class="cls-2" d="M376.78,205.97c.53.33,2.61,6.99,3.22,7.16,1.02.29.63-.53.84-1.06.34-.87,2.08-5.93,2.35-6.11.8-.52,3.31.04,4.27.17-2.57,3.98-4.25,12.79-7,16.14-1.62,1.97-7.57,3.05-7.78.75-.01-.14.72-2.57.83-2.65.27-.19,3.05,1.13,4.09-.98,1.2-2.43-6.03-12.56-5.08-13.5.15-.15,4.02-.07,4.26.08Z"/>
      <path class="cls-2" d="M78.73,205.52c11.5-2.38,13.1,13.06,3.27,13.88-10.18.85-11.28-12.22-3.27-13.88ZM80.19,208.87c-3.86.78-3.34,7.25.8,7.12,4.74-.15,4.42-8.18-.8-7.12Z"/>
      <path class="cls-2" d="M24.73,205.52c6.17-1.14,10.25,2.49,9.26,8.78s-12.29,6.89-14.4.49c-1.32-4.01.87-8.47,5.14-9.26ZM25.69,208.88c-3.66.82-3.12,7.93,1.71,7.06,4.47-.81,3.39-8.21-1.71-7.06Z"/>
      <path class="cls-2" d="M435.56,205.53c12.01-2.06,12.63,14.86.85,13.87-8.3-.69-8.75-12.52-.85-13.87ZM441.03,212.4c0-1.98-1.6-3.58-3.58-3.58s-3.58,1.6-3.58,3.58,1.6,3.58,3.58,3.58,3.58-1.6,3.58-3.58Z"/>
      <path class="cls-2" d="M418.2,205.52c11.57-2.39,13.17,13.05,3.26,13.88-10.38.87-10.85-12.31-3.26-13.88ZM424.08,212.4c0-1.98-1.6-3.58-3.58-3.58s-3.58,1.6-3.58,3.58,1.6,3.58,3.58,3.58,3.58-1.6,3.58-3.58Z"/>
      <path class="cls-2" d="M406.76,218.91c-.14.14-3.86.19-3.86,0v-13.26c0-1.39-5.31-.24-6.3-.93-.73-.51-.68-2.96,0-3.44s15.78-.47,16.45,0c.71.5.7,2.94,0,3.44-.99.69-6.3-.45-6.3.93,0,1.81.47,12.79,0,13.26Z"/>
      <path class="cls-2" d="M63.44,209.27c-.18-.18-2.71.18-2.9,0-.12-.12-.12-3.26,0-3.38.19-.18,2.72.19,2.9,0,.23-.24-.62-4.5,2.87-5.57,1.29-.4,5.37-.51,6.07.72.19.34-.36,2.44-.72,2.72-.69.56-3.32-1.56-3.89.91s3.73.59,4.35,1.21c.12.12.12,3.26,0,3.38-.18.18-3.58-.13-4.34,0v8.92c0,1-3.54.72-4.34.72-.26-1.35.34-9.31,0-9.64Z"/>
      <path class="cls-2" d="M366.25,201.07c.22.22-.22,4.61,0,4.83s4.61-.22,4.83,0c.14.14.14,2.75-.45,3.17-.87.61-4.11-.05-4.37.21-.21.21-.06,5.43.21,5.82.97,1.37,3.98-.19,4.12-.03s.65,3.58.45,3.82c-.43.5-4.46.6-5.4.41-5.63-1.15-2.25-9.07-3.24-10.01-.35-.34-3.04.88-3.4-1.21-.56-3.28,3.01-1.78,3.4-2.16.29-.28-.54-3.93.45-4.61.44-.3,3.29-.33,3.41-.21Z"/>
      <path class="cls-2" d="M109.73,201.07c.22.22-.22,4.61,0,4.83s4.61-.22,4.83,0c.14.14.14,2.75-.45,3.17-.87.61-4.11-.05-4.37.21-.21.21-.06,5.42.21,5.82.99,1.43,3.91-1,4.48,1.77.47,2.3-.16,2.38-2.53,2.54-2.85.18-5.65-.37-6.03-3.61-.13-1.12.25-6.29.01-6.52-.49-.47-3.26,1.26-3.36-1.73-.1-2.7,2.94-1.24,3.36-1.64.29-.28-.54-3.93.45-4.61.44-.3,3.29-.33,3.41-.21Z"/>
      <path class="cls-2" d="M248.58,206.41c.26.36-.51,2.85-.93,3.14-1.06.74-7.52-2.47-7.52,2.85,0,5.83,7.58,1.86,7.98,2.17.14.11,1.02,2.98.77,3.38-.79,1.26-4.89,1.58-6.31,1.44-9.68-.92-9.06-15.42,2.85-13.94.42.05,3.06.82,3.15.95Z"/>
      <path class="cls-2" d="M262.57,214.57c.12.09.89,2.58.9,2.75.17,2.63-11.2,3.6-12.72-2.25-1.83-7.05,4.14-11.78,10.65-9.21,1.8.71,2.05,2.74.71,3.69-.92.66-8.15-2.42-7.63,3.22.49,5.28,7.69,1.52,8.09,1.8Z"/>
      <path class="cls-2" d="M451.6,218.91c-.15.15-4.34.22-4.34,0v-18.08c0-1.03,4.34-1.03,4.34,0,0,2.44.64,17.44,0,18.08Z"/>
      <path class="cls-2" d="M90.92,205.89c.15-.15,4.19-.16,4.34,0,.21.22-.34,1.91.24,1.94.37.02.31-.86.75-1.18,1.1-.81,4.12-2.07,5.07-.77.11.16-.16,3.72-.28,3.87-.05.06-.98-.49-1.62-.45-.97.05-4.16,1.16-4.16,2.14v7.47c-.8,0-4.34.28-4.34-.72,0-1.69-.43-11.86,0-12.3Z"/>
      <rect class="cls-2" x="345.52" y="200.59" width="3.86" height="18.32"/>
      <rect class="cls-2" x="312.73" y="205.89" width="4.34" height="13.02"/>
      <path class="cls-2" d="M357.09,205.89v12.3c0,1-3.54.72-4.34.72v-13.02c0-.22,3.79.16,4.34,0Z"/>
      <rect class="cls-2" x="337.8" y="205.89" width="3.86" height="13.02"/>
      <rect class="cls-2" x="116" y="209.75" width="7.72" height="3.86"/>
      <circle class="cls-2" cx="339.73" cy="201.79" r="2.35"/>
      <path class="cls-2" d="M316.52,199.69c1.68,1.05-.09,6.23-3.11,3.83-2.36-1.88.89-5.22,3.11-3.83Z"/>
      <path class="cls-2" d="M353.3,199.69c2.22-1.39,5.47,1.95,3.11,3.83-3.02,2.4-4.79-2.78-3.11-3.83Z"/>
    </g>
  </g>
</svg>